<?xml version="1.0" standalone="no"?>
<!DOCTYPE svg PUBLIC "-//W3C//DTD SVG 20010904//EN"
 "http://www.w3.org/TR/2001/REC-SVG-20010904/DTD/svg10.dtd">
<svg version="1.0" xmlns="http://www.w3.org/2000/svg"
 width="468.000000pt" height="404.000000pt" viewBox="0 0 468.000000 404.000000"
 preserveAspectRatio="xMidYMid meet">

<g transform="translate(0.000000,404.000000) scale(0.100000,-0.100000)"
fill="#000000" stroke="none">
<path d="M2100 3526 c-430 -76 -788 -303 -1027 -653 -415 -606 -340 -1423 177
-1943 233 -235 505 -377 835 -437 122 -22 388 -22 510 0 572 105 1032 502
1203 1037 124 389 97 785 -78 1145 -210 431 -590 731 -1063 836 -118 27 -442
35 -557 15z m540 -61 c201 -44 412 -137 573 -252 107 -77 257 -227 336 -338
68 -97 167 -290 202 -395 174 -529 37 -1122 -351 -1511 -159 -159 -317 -265
-506 -339 -529 -207 -1106 -109 -1530 258 -409 354 -591 908 -475 1441 29 130
55 203 126 346 210 422 608 717 1080 800 110 19 441 13 545 -10z"/>
<path d="M2274 3356 c-35 -16 -44 -32 -44 -82 0 -24 8 -43 26 -60 21 -22 31
-25 62 -20 20 4 45 7 55 8 9 1 17 10 17 19 0 10 7 25 16 33 14 15 11 16 -38
15 -43 0 -49 -2 -29 -10 15 -6 21 -14 17 -25 -3 -9 -6 -18 -6 -20 0 -2 -13 -4
-30 -4 -33 0 -50 22 -50 67 0 68 61 96 99 46 l20 -28 1 32 c0 24 -4 32 -17 31
-10 0 -29 2 -43 5 -14 4 -39 0 -56 -7z"/>
<path d="M2135 3353 c-27 -7 -44 -23 -23 -23 10 0 20 -16 27 -46 7 -26 10 -48
9 -50 -2 -2 -28 17 -58 41 -55 44 -90 54 -120 35 -13 -8 -13 -10 1 -10 29 0
53 -133 27 -143 -18 -8 23 -8 50 -1 26 7 30 22 5 20 -12 -1 -20 13 -29 49 -7
27 -11 51 -9 53 2 3 32 -19 65 -47 65 -54 68 -55 87 -43 9 5 7 24 -5 76 -13
54 -14 70 -4 74 6 2 12 8 12 13 0 9 -3 10 -35 2z"/>
<path d="M2570 3310 c-63 -63 -21 -151 73 -154 87 -2 123 120 46 159 -40 21
-95 19 -119 -5z m108 -12 c20 -20 14 -75 -12 -105 -24 -27 -26 -27 -53 -13
-34 19 -39 46 -19 94 12 29 20 36 43 36 16 0 34 -5 41 -12z"/>
<path d="M1868 3282 c-38 -15 -51 -32 -23 -32 19 0 57 -89 50 -117 -6 -27 -7
-27 41 -6 26 11 33 18 23 20 -23 6 -70 114 -56 131 15 19 6 20 -35 4z"/>
<path d="M2785 3245 c-38 -37 -35 -95 7 -130 20 -17 40 -25 54 -22 15 3 24 -1
27 -12 3 -12 7 -9 17 11 7 15 22 28 34 30 16 3 10 9 -28 26 -60 27 -64 27 -41
2 14 -15 16 -23 7 -32 -16 -16 -60 -1 -67 22 -7 24 22 89 46 104 25 14 69 -17
69 -49 0 -32 14 -32 28 0 15 33 15 38 0 32 -7 -2 -26 7 -41 19 -37 31 -81 31
-112 -1z"/>
<path d="M2460 3250 c0 -5 12 -10 26 -10 14 0 23 4 19 10 -3 6 -15 10 -26 10
-10 0 -19 -4 -19 -10z"/>
<path d="M1665 3184 c-32 -19 -35 -24 -18 -24 29 0 77 -82 69 -116 -4 -13 -4
-24 -2 -24 6 0 130 70 139 80 10 9 -9 50 -22 50 -5 0 -7 -10 -4 -21 6 -22 -28
-58 -54 -59 -6 0 -26 25 -43 55 -26 45 -30 59 -20 70 17 21 2 17 -45 -11z"/>
<path d="M3015 3171 c8 -28 -51 -125 -71 -117 -8 3 -14 2 -14 -3 0 -5 30 -28
67 -51 l67 -42 18 22 c22 27 17 36 -9 19 -15 -9 -26 -8 -51 5 -18 9 -32 20
-32 24 0 4 16 31 35 59 27 40 39 51 53 46 27 -10 0 18 -38 41 l-32 18 7 -21z"/>
<path d="M1506 3075 c-51 -41 -64 -55 -48 -55 31 0 96 -83 87 -111 -7 -20 -6
-20 12 -8 85 63 123 95 123 105 0 6 -9 19 -20 29 -20 18 -21 18 -18 -14 2 -26
-3 -38 -24 -54 -27 -20 -28 -20 -48 -2 -15 14 -17 21 -9 32 7 7 20 11 30 8 23
-8 24 -1 3 30 -17 27 -36 33 -33 13 5 -43 -22 -53 -42 -16 -10 19 -8 25 17 45
33 26 45 28 62 11 6 -6 14 -9 17 -7 6 6 -23 49 -33 49 -4 -1 -38 -25 -76 -55z"/>
<path d="M2169 3061 c-423 -78 -746 -374 -862 -789 -29 -106 -31 -411 -4 -512
106 -386 377 -669 741 -774 500 -145 1032 95 1256 566 22 46 52 124 67 173 25
84 27 102 27 280 0 164 -3 201 -21 267 -107 382 -391 666 -771 769 -86 23
-349 35 -433 20z m291 -31 c425 -53 771 -355 876 -766 149 -584 -228 -1165
-825 -1269 -644 -113 -1237 417 -1198 1070 30 489 389 884 872 960 102 17 170
18 275 5z"/>
<path d="M2171 2858 c-31 -9 -33 -11 -26 -41 15 -69 13 -119 -4 -161 -10 -23
-22 -57 -25 -76 -4 -19 -11 -44 -15 -55 -27 -65 -31 -78 -31 -95 0 -22 -123
-148 -149 -152 -10 -2 -28 5 -39 15 -19 17 -20 17 -46 -13 -14 -17 -26 -35
-26 -40 0 -5 -10 -10 -22 -12 -12 -2 -28 -14 -34 -28 -32 -67 -36 -80 -31 -93
9 -25 -4 -28 -31 -7 -13 11 -31 20 -38 20 -7 0 -29 -28 -50 -62 -29 -51 -35
-70 -31 -100 4 -26 1 -38 -10 -42 -7 -3 -19 -19 -24 -35 -9 -26 -17 -31 -62
-38 l-52 -8 -7 -65 c-5 -58 -3 -71 21 -120 46 -93 110 -184 148 -210 45 -32
93 -81 93 -96 0 -10 31 -39 75 -72 6 -4 18 -13 27 -20 15 -12 26 -9 80 17 53
25 65 28 78 16 13 -11 26 -10 81 4 37 9 73 22 80 28 8 6 31 16 51 22 21 7 40
17 43 22 4 5 23 9 43 9 20 1 52 9 70 18 47 26 80 94 50 105 -16 5 8 51 57 112
18 22 42 60 55 85 12 25 29 49 36 53 8 4 14 16 14 26 0 10 7 24 15 31 8 7 18
30 21 51 4 22 9 39 13 39 4 0 18 -13 32 -29 50 -57 115 -45 139 25 6 18 19 39
29 49 11 9 22 28 26 42 5 20 10 24 28 19 18 -4 32 4 65 39 23 25 46 45 51 45
19 0 91 107 91 137 0 16 6 38 14 48 13 18 17 16 90 -34 42 -28 83 -54 91 -57
9 -4 22 11 40 46 25 50 26 53 11 85 -9 18 -16 36 -16 40 0 3 -7 13 -15 21 -8
9 -15 24 -15 35 0 15 -7 19 -37 19 -21 0 -47 7 -57 15 -21 16 -76 20 -76 6 0
-5 -14 -11 -30 -15 -17 -3 -41 -17 -54 -31 -28 -31 -66 -27 -81 8 -16 36 -38
30 -70 -18 -21 -31 -37 -45 -53 -45 -13 0 -40 -16 -60 -36 -20 -20 -49 -45
-64 -56 l-28 -19 0 43 c0 24 -3 74 -7 112 l-6 68 -187 -4 -187 -4 -7 105 c-3
57 -6 147 -6 200 0 53 -4 101 -8 107 -5 7 -18 8 -41 2z m167 -506 c9 -6 1 -13
-26 -24 -73 -29 -123 -129 -102 -207 13 -50 75 -106 132 -121 82 -21 108 -32
108 -43 0 -14 -53 -51 -93 -66 -41 -16 -131 -13 -176 5 l-39 15 -4 74 c-2 55
-8 80 -23 99 -11 13 -33 40 -48 60 l-28 35 19 44 c22 49 82 105 133 123 39 14
128 18 147 6z m91 -48 c61 -52 85 -105 86 -184 0 -71 -31 -149 -56 -141 -187
55 -239 94 -239 177 0 47 25 107 57 136 15 14 76 41 104 47 3 0 24 -15 48 -35z
m-309 -260 c12 -31 13 -104 2 -104 -13 0 -48 41 -66 78 -10 18 -20 56 -23 85
l-5 52 41 -43 c23 -24 46 -54 51 -68z m-73 -42 c19 -40 20 -48 8 -55 -25 -14
-17 -27 18 -27 17 0 46 -9 62 -21 24 -16 26 -19 8 -14 -16 4 -23 2 -23 -7 0
-7 -3 -23 -6 -35 -6 -20 -3 -23 24 -23 23 0 31 5 36 25 9 35 26 31 26 -5 0
-25 4 -30 25 -30 18 0 26 7 31 25 9 35 24 31 24 -5 0 -27 3 -30 30 -30 28 0
30 3 30 35 0 22 5 35 13 35 7 0 35 14 61 31 l49 30 36 -29 c40 -32 50 -65 28
-90 -8 -9 -17 -25 -20 -34 -4 -12 -17 -18 -38 -18 l-32 0 6 -45 c4 -27 3 -45
-3 -45 -6 0 -10 -6 -10 -14 0 -7 -7 -19 -16 -27 -13 -11 -15 -9 -12 17 3 25
-1 29 -24 32 -16 2 -28 0 -28 -5 0 -4 -3 -18 -6 -30 -5 -17 -1 -22 18 -25 29
-4 30 -22 2 -26 -23 -3 -41 -44 -23 -50 6 -3 6 -8 -1 -17 -6 -7 -12 -33 -12
-57 -1 -43 -12 -68 -29 -68 -5 0 -9 7 -9 15 0 24 -51 19 -57 -5 -7 -28 -23
-25 -23 5 0 21 -5 25 -30 25 -27 0 -30 -3 -30 -29 0 -17 5 -33 11 -37 21 -12
-14 -23 -57 -17 -38 5 -43 3 -46 -17 -5 -34 -26 -36 -30 -3 -2 20 -9 29 -25
31 -20 3 -23 -1 -23 -27 0 -18 5 -31 13 -31 6 0 4 -5 -6 -11 -30 -18 -48 -4
-40 32 6 33 -6 49 -39 49 -13 0 -18 -8 -18 -30 0 -17 5 -30 13 -30 7 -1 5 -6
-6 -14 -12 -9 -32 -12 -58 -9 -35 5 -39 3 -39 -16 0 -12 -4 -19 -10 -16 -5 3
-10 15 -10 26 0 13 -7 19 -21 19 -39 0 -59 19 -59 55 0 24 -5 35 -15 35 -8 0
-15 4 -15 9 0 5 -10 11 -22 13 -19 3 -23 8 -20 37 1 20 -3 38 -10 43 -21 13
-48 9 -48 -7 0 -8 -4 -15 -8 -15 -10 0 -32 58 -22 62 4 2 10 15 13 29 5 21 3
28 -13 32 -16 4 -19 -1 -22 -31 -3 -35 -3 -35 -41 41 l-38 76 28 57 c43 87
141 181 243 232 83 40 198 70 280 71 32 0 37 -4 57 -47z"/>
<path d="M1960 1941 c0 -5 14 -11 30 -13 20 -3 30 0 30 9 0 8 -12 13 -30 13
-16 0 -30 -4 -30 -9z"/>
<path d="M1790 1901 c-16 -31 -12 -38 20 -43 17 -3 30 0 30 6 0 6 3 21 6 34 5
19 2 22 -19 22 -16 0 -31 -8 -37 -19z"/>
<path d="M1870 1880 c0 -25 4 -30 24 -30 16 0 26 7 30 23 9 35 8 37 -24 37
-27 0 -30 -3 -30 -30z"/>
<path d="M1731 1886 l-23 -13 23 -6 c27 -7 32 -4 27 17 -2 12 -7 13 -27 2z"/>
<path d="M1950 1870 c0 -27 3 -30 30 -30 27 0 30 3 30 30 0 27 -3 30 -30 30
-27 0 -30 -3 -30 -30z"/>
<path d="M2040 1879 c0 -9 -3 -24 -6 -33 -5 -13 1 -16 25 -16 28 0 31 3 31 29
0 23 -5 30 -25 33 -19 4 -25 1 -25 -13z"/>
<path d="M2366 1835 c-8 -33 -1 -45 28 -45 31 0 42 38 18 56 -26 20 -39 17
-46 -11z"/>
<path d="M1630 1815 l-23 -25 25 0 c23 0 38 16 38 41 0 16 -16 10 -40 -16z"/>
<path d="M1690 1810 c0 -27 3 -30 30 -30 27 0 30 3 30 30 0 27 -3 30 -30 30
-27 0 -30 -3 -30 -30z"/>
<path d="M1776 1808 c-9 -36 -8 -38 23 -38 21 0 30 6 35 23 9 35 8 37 -23 37
-21 0 -30 -6 -35 -22z"/>
<path d="M1860 1790 c0 -25 4 -30 25 -30 15 0 25 6 25 14 0 8 3 21 6 30 5 13
-1 16 -25 16 -28 0 -31 -3 -31 -30z"/>
<path d="M1940 1786 c0 -33 2 -36 30 -36 27 0 30 3 30 30 0 19 -5 30 -14 30
-8 0 -21 3 -30 6 -13 5 -16 -1 -16 -30z"/>
<path d="M2450 1800 c0 -14 7 -20 22 -20 20 0 21 1 3 20 -10 11 -20 20 -22 20
-1 0 -3 -9 -3 -20z"/>
<path d="M2028 1781 c-5 -37 -2 -41 29 -41 19 0 23 5 23 30 0 17 -4 30 -9 30
-5 0 -16 3 -24 6 -10 4 -16 -4 -19 -25z"/>
<path d="M2107 1773 c-7 -35 -2 -43 28 -43 16 0 25 7 29 26 8 31 8 30 -25 39
-23 6 -27 3 -32 -22z"/>
<path d="M2192 1759 c2 -26 8 -35 25 -37 17 -3 24 3 29 23 8 31 7 31 -29 40
-27 7 -28 6 -25 -26z"/>
<path d="M2277 1773 c-13 -12 -7 -51 9 -57 32 -12 44 -6 44 23 0 33 -33 54
-53 34z"/>
<path d="M1600 1735 c0 -31 3 -35 25 -35 18 0 26 7 31 25 7 30 7 30 -28 39
-27 6 -28 5 -28 -29z"/>
<path d="M2356 1743 c-8 -27 5 -43 35 -43 20 0 33 51 16 62 -24 15 -45 8 -51
-19z"/>
<path d="M1680 1725 c0 -32 2 -35 30 -35 26 0 30 3 30 29 0 21 -6 30 -22 35
-36 9 -38 8 -38 -29z"/>
<path d="M1766 1725 c-8 -33 -1 -45 29 -45 16 0 25 7 29 26 8 31 8 30 -25 39
-23 6 -27 3 -33 -20z"/>
<path d="M1556 1725 c-3 -8 -1 -15 4 -15 6 0 10 7 10 15 0 8 -2 15 -4 15 -2 0
-6 -7 -10 -15z"/>
<path d="M1852 1709 c2 -26 8 -35 24 -37 17 -2 23 3 27 25 6 33 9 30 -26 38
-27 7 -28 6 -25 -26z"/>
<path d="M1932 1698 c2 -28 8 -34 31 -36 24 -3 27 0 27 26 0 29 -14 42 -46 42
-11 0 -14 -9 -12 -32z"/>
<path d="M2017 1693 c-5 -29 6 -43 36 -43 28 0 20 64 -9 68 -17 2 -23 -3 -27
-25z"/>
<path d="M2097 1683 c-6 -33 -8 -30 24 -38 23 -6 27 -3 33 20 8 33 1 45 -28
45 -18 0 -25 -7 -29 -27z"/>
<path d="M2180 1672 c0 -22 6 -31 22 -35 25 -7 39 8 36 38 -2 14 -12 21 -30
23 -25 3 -28 0 -28 -26z"/>
<path d="M2260 1660 c0 -16 3 -30 8 -30 4 0 17 -3 30 -6 20 -6 22 -3 22 30 0
33 -2 36 -30 36 -27 0 -30 -3 -30 -30z"/>
<path d="M1530 1655 c0 -15 6 -25 14 -25 7 0 16 11 18 25 4 19 1 25 -13 25
-14 0 -19 -7 -19 -25z"/>
<path d="M1590 1649 c0 -27 3 -30 27 -27 49 5 40 57 -9 58 -13 0 -18 -8 -18
-31z"/>
<path d="M1670 1641 c0 -28 3 -31 31 -31 27 0 30 3 27 28 -2 21 -9 28 -30 30
-25 3 -28 0 -28 -27z"/>
<path d="M1757 1638 c-8 -28 -1 -38 28 -38 24 0 42 30 30 50 -12 19 -52 11
-58 -12z"/>
<path d="M1842 1623 c4 -37 43 -45 51 -12 8 30 1 39 -29 39 -22 0 -25 -4 -22
-27z"/>
<path d="M1922 1613 c2 -22 9 -29 31 -31 24 -3 27 0 27 27 0 28 -3 31 -31 31
-27 0 -30 -3 -27 -27z"/>
<path d="M2008 1606 c-3 -16 0 -27 9 -30 32 -12 43 -6 43 24 0 25 -4 30 -24
30 -17 0 -25 -7 -28 -24z"/>
<path d="M2088 1596 c-4 -20 0 -26 20 -31 29 -7 28 -7 37 28 7 25 5 27 -23 27
-23 0 -31 -5 -34 -24z"/>
<path d="M2170 1586 c0 -16 7 -26 22 -29 29 -8 38 -1 38 29 0 20 -5 24 -30 24
-25 0 -30 -4 -30 -24z"/>
<path d="M1580 1565 c0 -31 3 -35 25 -35 18 0 26 7 31 26 7 28 -7 44 -38 44
-14 0 -18 -8 -18 -35z"/>
<path d="M2250 1575 c0 -14 3 -25 8 -25 4 0 17 -3 30 -6 19 -6 22 -3 22 25 0
28 -3 31 -30 31 -25 0 -30 -4 -30 -25z"/>
<path d="M1667 1583 c-4 -3 -7 -19 -7 -35 0 -24 4 -28 30 -28 26 0 30 3 30 29
0 33 -33 54 -53 34z"/>
<path d="M1747 1553 c-7 -35 -2 -43 28 -43 29 0 47 46 24 61 -27 17 -47 10
-52 -18z"/>
<path d="M1832 1538 c4 -44 42 -53 52 -13 9 33 1 45 -30 45 -22 0 -25 -4 -22
-32z"/>
<path d="M1910 1531 c0 -28 14 -41 46 -41 9 0 14 11 14 35 0 32 -2 35 -30 35
-26 0 -30 -3 -30 -29z"/>
<path d="M1998 1520 c-4 -29 6 -40 38 -40 9 0 14 11 14 35 0 30 -3 35 -24 35
-19 0 -25 -6 -28 -30z"/>
<path d="M2080 1526 c0 -8 -3 -21 -6 -29 -3 -10 4 -17 22 -21 32 -8 32 -8 40
32 6 31 5 32 -25 32 -20 0 -31 -5 -31 -14z"/>
<path d="M2160 1501 c0 -21 6 -30 22 -34 30 -8 38 -1 38 34 0 26 -3 29 -30 29
-26 0 -30 -3 -30 -29z"/>
<path d="M2247 1513 c-13 -12 -7 -53 7 -53 8 0 21 -3 30 -6 13 -5 16 1 16 30
0 31 -3 36 -23 36 -13 0 -27 -3 -30 -7z"/>
<path d="M1657 1494 c-4 -4 -7 -20 -7 -36 0 -25 4 -28 31 -28 28 0 30 2 27 33
-2 23 -8 33 -23 35 -12 2 -24 0 -28 -4z"/>
<path d="M1740 1478 c0 -7 -3 -23 -6 -35 -6 -20 -3 -23 24 -23 24 0 31 5 36
25 4 14 4 30 1 35 -9 15 -55 12 -55 -2z"/>
<path d="M1820 1445 c0 -30 3 -35 24 -35 17 0 26 7 30 25 8 33 1 45 -30 45
-21 0 -24 -5 -24 -35z"/>
<path d="M1900 1435 c0 -32 2 -35 30 -35 28 0 30 3 30 35 0 32 -2 35 -30 35
-28 0 -30 -3 -30 -35z"/>
<path d="M1988 1430 c-5 -36 -2 -40 29 -40 20 0 23 5 23 35 0 30 -3 35 -24 35
-19 0 -25 -6 -28 -30z"/>
<path d="M2067 1423 c-7 -35 -2 -43 27 -43 16 0 26 7 30 23 10 39 7 47 -23 47
-23 0 -30 -5 -34 -27z"/>
<path d="M1730 1386 c0 -8 -3 -21 -6 -30 -5 -12 1 -16 24 -16 22 0 32 6 37 21
8 24 8 24 -27 33 -21 5 -28 3 -28 -8z"/>
<path d="M1810 1361 c0 -26 4 -31 24 -31 16 0 27 7 31 21 8 25 7 25 -28 34
-25 7 -27 5 -27 -24z"/>
<path d="M3204 3035 c3 -10 -10 -33 -36 -61 -32 -34 -46 -43 -62 -38 -14 4 0
-15 39 -55 33 -34 64 -61 71 -61 6 0 19 9 29 20 18 20 18 20 -12 14 -23 -4
-36 0 -59 19 -29 25 -29 25 -10 46 23 26 39 23 46 -8 l5 -23 25 28 c25 26 25
27 3 22 -35 -9 -47 15 -20 40 l23 22 29 -30 c25 -26 27 -33 17 -55 -14 -30 -2
-33 23 -5 18 20 18 22 -40 80 -59 59 -83 74 -71 45z"/>
<path d="M1337 2921 c-61 -63 -68 -76 -39 -67 21 7 108 -76 98 -93 -18 -29 16
-5 69 49 l59 60 -22 22 c-12 12 -25 19 -29 15 -3 -4 -1 -13 5 -19 17 -17 15
-22 -14 -58 l-27 -31 -23 22 c-28 26 -23 39 13 39 l26 0 -23 25 c-28 30 -40
32 -33 6 6 -25 -12 -35 -37 -19 -26 17 -25 29 3 56 26 25 47 28 65 10 9 -9 12
-9 12 3 0 18 -19 39 -35 39 -7 0 -37 -27 -68 -59z"/>
<path d="M3375 2871 c5 -16 -5 -27 -47 -55 -34 -24 -56 -32 -62 -26 -26 26
-23 5 5 -37 48 -72 70 -93 96 -93 18 0 25 7 30 31 4 20 10 28 19 25 25 -9 44
5 44 33 0 16 -17 51 -41 84 -42 60 -55 70 -44 38z m51 -77 c15 -22 15 -27 2
-40 -17 -18 -39 -11 -56 17 -11 18 -11 23 5 35 25 19 30 18 49 -12z m-46 -76
c0 -37 -51 -33 -71 5 -10 17 -8 24 12 40 23 18 23 18 41 -5 10 -13 18 -31 18
-40z"/>
<path d="M1223 2775 c-25 -38 -32 -68 -11 -47 10 10 36 4 57 -14 4 -4 -39 -74
-45 -74 -19 0 -44 24 -44 43 -1 18 -5 15 -25 -18 -28 -45 -32 -63 -10 -45 12
10 22 8 52 -11 56 -33 72 -49 66 -65 -10 -26 4 -14 30 26 15 21 23 42 18 45
-5 3 -11 0 -13 -6 -3 -9 -10 -8 -28 1 -14 7 -26 14 -28 15 -5 4 40 75 47 75
15 0 39 -26 43 -45 3 -17 7 -14 26 16 26 43 27 50 7 43 -20 -8 -113 53 -117
76 -2 16 -7 13 -25 -15z"/>
<path d="M3465 2619 c-38 -5 -78 -6 -88 -3 -18 6 -18 5 -1 -28 14 -25 19 -29
22 -15 2 9 11 17 21 17 21 0 46 -42 38 -64 -7 -18 -27 -22 -27 -6 0 6 -5 10
-10 10 -6 0 -1 -19 11 -41 l21 -41 16 23 c8 13 33 45 55 71 28 34 37 53 32 68
-3 11 -9 19 -13 19 -4 -1 -38 -5 -77 -10z m35 -44 c-13 -14 -24 -24 -25 -22
-1 1 -8 12 -14 25 -11 21 -10 22 25 22 l37 0 -23 -25z"/>
<path d="M1096 2553 c-10 -11 -7 -45 4 -38 11 7 89 -44 90 -58 0 -4 -24 -7
-52 -5 -36 2 -52 7 -50 16 5 26 -17 11 -27 -19 -15 -42 -14 -54 2 -40 11 8 23
3 53 -24 l39 -34 -52 -1 c-32 0 -53 5 -56 13 -6 16 -14 8 -22 -23 l-6 -25 91
3 c59 2 90 7 90 15 0 6 -19 28 -42 49 l-43 37 56 1 c82 0 82 17 0 84 -38 30
-71 52 -75 49z"/>
<path d="M3600 2458 c0 -20 -51 -79 -77 -89 -20 -7 -29 -6 -40 8 -13 17 -14
16 -9 -7 4 -14 9 -37 12 -52 7 -32 24 -38 24 -9 0 29 42 34 102 11 29 -11 54
-20 55 -20 1 0 -3 14 -9 31 -6 19 -13 26 -18 19 -9 -14 -60 -2 -60 15 0 6 9
20 19 29 15 13 20 14 24 4 10 -30 15 1 5 35 -11 35 -28 51 -28 25z"/>
<path d="M1034 2205 c-15 -23 -15 -27 0 -50 19 -29 47 -32 70 -9 31 30 9 84
-34 84 -11 0 -27 -11 -36 -25z"/>
<path d="M3572 2218 c-19 -19 -15 -66 7 -78 11 -5 24 -10 30 -10 18 0 41 31
41 55 0 37 -52 59 -78 33z"/>
<path d="M1383 1255 c-32 -23 -28 -35 10 -33 44 4 40 -11 -17 -61 -36 -32 -51
-39 -61 -31 -7 6 -16 7 -19 2 -3 -5 13 -26 36 -48 31 -30 39 -34 34 -18 -5 17
4 30 44 64 39 33 54 40 63 31 9 -9 8 -16 -1 -32 -20 -31 -5 -36 23 -8 l24 24
-57 63 c-55 61 -58 62 -79 47z"/>
<path d="M3214 1199 c-54 -52 -69 -77 -37 -65 21 8 103 -70 103 -98 0 -16 10
-11 50 29 28 28 53 60 57 73 7 31 -15 55 -48 50 -22 -4 -26 -1 -26 20 0 22
-17 41 -36 42 -5 0 -33 -23 -63 -51z m65 -3 c19 -23 -4 -60 -29 -46 -30 16
-35 32 -15 47 24 17 30 16 44 -1z m61 -51 c10 -12 10 -21 1 -42 l-12 -26 -27
27 c-26 26 -27 27 -8 42 25 18 31 18 46 -1z"/>
<path d="M1542 1103 c4 -26 -69 -124 -87 -116 -35 13 -10 -18 51 -65 l67 -51
18 24 c23 29 26 53 5 36 -20 -17 -67 -10 -80 11 -8 13 -6 22 8 37 21 24 36 19
36 -11 0 -17 2 -19 16 -8 8 8 20 22 25 32 9 17 7 19 -12 16 -28 -4 -34 12 -15
37 14 20 15 20 41 -5 19 -18 24 -31 20 -47 -7 -29 6 -29 31 -2 19 21 19 21
-11 45 -17 13 -50 38 -73 55 -37 27 -43 29 -40 12z"/>
<path d="M3092 1087 c-27 -28 -28 -37 -4 -31 11 4 28 -9 50 -38 35 -46 38 -74
9 -92 -16 -9 -25 -4 -59 34 -28 31 -38 51 -35 67 2 13 1 23 -2 23 -10 -1 -85
-60 -78 -61 4 -1 12 -3 17 -4 6 -1 14 -3 18 -4 5 0 23 -21 41 -46 27 -38 37
-45 66 -45 25 0 40 8 59 31 14 17 26 37 26 44 0 7 -18 36 -40 64 -24 30 -37
56 -34 66 9 22 -9 18 -34 -8z"/>
<path d="M1716 983 c-3 -3 -1 -12 4 -19 15 -18 -38 -124 -62 -124 -29 0 -21
-15 18 -34 l36 -17 -6 26 c-4 17 1 39 16 68 l22 42 8 -79 c7 -75 16 -95 44
-96 6 0 23 28 40 61 19 41 37 65 54 71 l25 10 -38 20 c-40 20 -58 18 -39 -4 7
-9 4 -26 -13 -58 -24 -45 -24 -45 -25 -14 0 17 -3 52 -6 76 -5 39 -11 48 -39
61 -18 9 -36 13 -39 10z"/>
<path d="M2853 937 c-45 -22 -55 -37 -25 -37 26 0 77 -107 61 -126 -18 -22 3
-18 80 17 l70 31 -16 34 c-18 37 -33 37 -26 0 4 -19 -1 -28 -24 -40 l-29 -15
-27 55 c-30 60 -33 80 -15 86 7 3 8 7 3 10 -6 3 -29 -4 -52 -15z"/>
<path d="M2756 891 c-4 -6 -21 -11 -37 -11 -43 0 -69 -17 -84 -53 -39 -95 66
-177 147 -115 25 19 35 68 14 68 -9 0 -16 -8 -16 -18 0 -44 -58 -57 -84 -20
-19 27 -21 89 -4 106 17 17 53 15 68 -3 20 -24 33 -18 25 13 -8 33 -21 47 -29
33z"/>
<path d="M1930 881 c0 -5 5 -13 11 -17 6 -3 8 -18 4 -33 -20 -83 -27 -101 -40
-101 -28 0 -15 -17 20 -27 21 -7 37 -7 41 -2 3 5 0 9 -7 9 -8 0 -10 13 -5 46
11 82 22 83 41 3 18 -75 27 -89 56 -89 13 0 21 19 34 71 13 53 23 72 38 78 19
7 17 9 -17 21 -37 12 -62 6 -38 -9 10 -6 11 -17 1 -54 -6 -26 -15 -45 -19 -42
-4 2 -13 32 -20 66 -10 45 -18 63 -34 68 -49 19 -66 22 -66 12z"/>
<path d="M2170 820 c0 -5 5 -10 10 -10 11 0 13 -81 4 -117 -4 -13 -13 -23 -20
-23 -8 0 -14 -4 -14 -9 0 -9 101 -24 109 -15 3 3 -2 10 -12 15 -26 15 -18 139
9 139 22 0 16 17 -8 24 -36 9 -78 7 -78 -4z"/>
<path d="M2365 822 c-31 -6 -45 -22 -45 -52 0 -34 14 -46 69 -59 50 -11 55
-15 48 -36 -9 -23 -64 -19 -79 5 -16 25 -38 26 -38 3 0 -31 14 -40 67 -42 69
-3 93 11 93 52 0 37 -18 52 -74 62 -43 9 -55 23 -32 40 21 16 54 8 69 -16 17
-28 27 -23 27 14 0 31 -1 32 -43 33 -23 0 -51 -2 -62 -4z"/>
</g>
</svg>
