<?xml version="1.0" standalone="no"?>
<!DOCTYPE svg PUBLIC "-//W3C//DTD SVG 20010904//EN"
 "http://www.w3.org/TR/2001/REC-SVG-20010904/DTD/svg10.dtd">
<svg version="1.0" xmlns="http://www.w3.org/2000/svg"
 width="222.000000pt" height="222.000000pt" viewBox="0 0 222.000000 222.000000"
 preserveAspectRatio="xMidYMid meet">
<metadata>
Created by potrace 1.10, written by Peter Selinger 2001-2011
</metadata>
<g transform="translate(0.000000,222.000000) scale(0.100000,-0.100000)"
fill="#10702d" stroke="none">
<path d="M60 2065 c-21 -35 -20 -43 9 -77 31 -37 81 -10 81 43 0 31 -30 69
-54 69 -8 0 -24 -16 -36 -35z"/>
<path d="M703 1999 c-40 -15 -42 -82 -2 -94 11 -4 32 -4 45 -1 22 6 25 11 22
48 -3 45 -26 62 -65 47z"/>
<path d="M170 1921 c-26 -50 -4 -101 44 -101 21 0 40 8 54 23 27 28 27 45 3
75 -25 29 -86 31 -101 3z"/>
<path d="M836 1918 c-20 -29 -20 -62 0 -82 19 -20 34 -20 62 0 27 19 29 64 4
87 -25 23 -48 21 -66 -5z"/>
<path d="M517 1892 c-41 -45 4 -103 66 -86 27 8 33 15 35 42 2 19 -2 40 -9 48
-16 20 -73 18 -92 -4z"/>
<path d="M901 1786 c-7 -8 -11 -30 -9 -48 3 -29 7 -33 35 -36 23 -2 35 3 47
20 20 29 20 34 -4 58 -23 23 -53 26 -69 6z"/>
<path d="M228 1739 c-42 -31 -39 -80 7 -109 l35 -22 27 22 c16 12 31 29 34 38
13 35 -25 91 -61 91 -8 0 -27 -9 -42 -20z"/>
<path d="M426 1711 c-12 -13 -16 -32 -14 -58 3 -36 5 -38 41 -41 70 -6 101 52
54 96 -29 27 -58 28 -81 3z"/>
<path d="M944 1640 c-25 -10 -34 -37 -23 -68 12 -32 61 -30 79 2 22 42 -12 82
-56 66z"/>
<path d="M302 1520 c-12 -12 -22 -32 -22 -45 0 -27 35 -65 61 -65 27 0 69 39
69 65 0 26 -42 65 -69 65 -10 0 -27 -9 -39 -20z"/>
<path d="M930 1469 c-9 -16 -8 -25 6 -40 20 -22 34 -24 59 -6 13 10 16 21 11
40 -5 22 -12 27 -36 27 -19 0 -33 -7 -40 -21z"/>
<path d="M858 1341 c-84 -43 -128 -94 -160 -186 -22 -64 -22 -117 1 -184 25
-71 111 -163 166 -177 14 -3 28 -10 31 -15 3 -5 43 -9 90 -9 79 0 88 2 138 34
63 40 123 111 132 155 4 17 11 34 15 37 5 3 9 34 9 69 0 88 -35 160 -108 225
-94 84 -211 103 -314 51z m122 -45 c0 -29 -41 -104 -77 -140 -38 -39 -109 -76
-144 -76 -15 0 -19 7 -19 31 0 54 66 142 134 180 38 22 106 25 106 5z m111
-13 c39 -19 115 -95 124 -124 9 -26 -9 -46 -48 -55 -38 -8 -71 -28 -115 -68
-42 -39 -65 -87 -72 -151 -6 -55 -16 -62 -75 -51 -43 8 -118 76 -146 131 -29
58 -21 75 36 75 96 0 194 91 221 205 7 32 22 55 34 55 4 0 22 -7 41 -17z m127
-243 c8 -69 -107 -210 -171 -210 -48 0 -45 24 18 138 18 33 56 72 71 72 6 0
17 7 24 15 20 24 54 15 58 -15z"/>
<path d="M54 1325 c-4 -9 -4 -25 -1 -38 4 -12 20 -76 37 -141 18 -66 39 -156
49 -200 l16 -81 51 -3 c33 -2 54 2 61 10 6 7 23 73 37 147 28 141 40 175 59
168 12 -4 18 -24 37 -132 6 -38 16 -86 21 -105 4 -19 11 -48 14 -63 5 -27 7
-28 63 -25 l57 3 21 115 c12 63 26 128 33 143 6 16 11 40 11 54 0 15 9 46 21
70 11 23 19 53 17 65 -2 19 -10 24 -45 26 -54 4 -59 -6 -82 -164 -10 -69 -23
-130 -29 -136 -18 -18 -30 0 -37 55 -4 28 -10 68 -15 87 -5 19 -14 61 -20 93
l-12 58 -61 -3 -62 -3 -21 -105 c-35 -175 -49 -212 -68 -182 -6 10 -23 112
-36 216 -5 38 -14 73 -22 77 -23 15 -88 10 -94 -6z"/>
<path d="M1330 1312 c-19 -42 2 -61 73 -64 l62 -3 0 -190 0 -190 55 0 55 0 0
190 0 190 58 0 c46 0 61 4 73 19 15 21 19 65 7 67 -5 0 -90 1 -190 2 -181 2
-182 2 -193 -21z"/>
<path d="M1930 1330 c-77 -14 -150 -78 -170 -150 -18 -63 -12 -169 11 -217 35
-73 115 -123 197 -123 112 0 236 142 157 178 -43 20 -63 14 -81 -20 -32 -64
-77 -82 -133 -53 -39 20 -61 71 -61 142 0 73 23 122 71 147 32 17 40 18 67 7
17 -7 40 -28 51 -47 21 -36 41 -41 85 -24 49 18 25 89 -45 134 -33 21 -105 34
-149 26z"/>
</g>
</svg>
