<?xml version="1.0" standalone="no"?>
<!DOCTYPE svg PUBLIC "-//W3C//DTD SVG 20010904//EN"
 "http://www.w3.org/TR/2001/REC-SVG-20010904/DTD/svg10.dtd">
<svg version="1.0" xmlns="http://www.w3.org/2000/svg"
 width="74.000000pt" height="74.000000pt" viewBox="0 0 74.000000 74.000000"
 preserveAspectRatio="xMidYMid meet">
<metadata>
Created by potrace 1.10, written by Peter Selinger 2001-2011
</metadata>
<g transform="translate(0.000000,74.000000) scale(0.100000,-0.100000)"
fill="#000000" stroke="none">
<path d="M25 690 c-7 -12 2 -30 16 -30 5 0 9 9 9 20 0 21 -15 27 -25 10z"/>
<path d="M230 655 c0 -8 7 -15 15 -15 8 0 15 7 15 15 0 8 -7 15 -15 15 -8 0
-15 -7 -15 -15z"/>
<path d="M60 630 c0 -15 5 -20 18 -18 9 2 17 10 17 18 0 8 -8 16 -17 18 -13 2
-18 -3 -18 -18z"/>
<path d="M280 630 c0 -13 5 -20 13 -17 6 2 12 10 12 17 0 7 -6 15 -12 18 -8 2
-13 -5 -13 -18z"/>
<path d="M177 634 c-13 -13 -7 -24 14 -24 11 0 19 5 17 12 -5 14 -22 21 -31
12z"/>
<path d="M300 585 c0 -8 7 -15 15 -15 8 0 15 7 15 15 0 8 -7 15 -15 15 -8 0
-15 -7 -15 -15z"/>
<path d="M73 574 c-9 -23 13 -40 32 -24 12 10 13 16 4 26 -15 18 -28 18 -36
-2z"/>
<path d="M147 574 c-14 -14 -7 -35 11 -32 9 2 17 10 17 17 0 16 -18 25 -28 15z"/>
<path d="M310 534 c0 -17 22 -14 28 4 2 7 -3 12 -12 12 -9 0 -16 -7 -16 -16z"/>
<path d="M104 505 c-3 -8 -3 -19 0 -24 9 -13 36 -2 36 14 0 19 -30 27 -36 10z"/>
<path d="M312 489 c2 -6 8 -10 13 -10 5 0 11 4 13 10 2 6 -4 11 -13 11 -9 0
-15 -5 -13 -11z"/>
<path d="M271 434 c-21 -19 -34 -42 -38 -66 -5 -33 -2 -41 30 -73 54 -54 122
-44 156 22 29 57 -12 129 -80 139 -30 5 -41 1 -68 -22z m59 -5 c0 -14 -55 -69
-69 -69 -17 0 -13 25 10 54 20 26 59 36 59 15z m63 -17 c25 -22 21 -35 -16
-52 -22 -10 -35 -26 -42 -47 -11 -41 -36 -43 -64 -7 -28 35 -27 38 12 49 23 7
37 21 50 48 19 38 25 39 60 9z m17 -66 c0 -20 -39 -66 -56 -66 -18 0 -18 4 1
40 19 36 55 54 55 26z"/>
<path d="M24 428 c3 -13 11 -49 18 -81 10 -49 15 -57 33 -55 16 2 22 14 29 56
5 28 13 52 16 52 4 0 12 -25 19 -55 9 -41 17 -55 30 -55 13 0 21 17 34 73 21
86 21 87 3 87 -17 0 -26 -22 -26 -64 0 -54 -14 -51 -25 6 -8 43 -14 54 -32 56
-18 3 -23 -3 -28 -35 -12 -76 -22 -82 -30 -20 -6 48 -10 57 -27 57 -16 0 -19
-5 -14 -22z"/>
<path d="M447 444 c-11 -11 3 -24 26 -24 21 0 22 -4 19 -65 -4 -61 -2 -65 18
-65 20 0 22 4 18 65 -3 62 -2 64 21 67 14 2 26 9 29 16 3 9 -14 12 -60 12 -36
0 -68 -3 -71 -6z"/>
<path d="M616 429 c-21 -16 -26 -29 -26 -63 0 -43 15 -66 53 -79 36 -13 95 35
66 54 -7 4 -19 -1 -29 -13 -14 -18 -20 -19 -39 -9 -18 10 -22 19 -19 48 4 46
29 64 56 40 23 -21 42 -22 42 -3 0 18 -38 46 -61 46 -9 0 -28 -9 -43 -21z"/>
</g>
</svg>
